<?xml version="1.0" standalone="no"?>
<!DOCTYPE svg PUBLIC "-//W3C//DTD SVG 20010904//EN"
 "http://www.w3.org/TR/2001/REC-SVG-20010904/DTD/svg10.dtd">
<svg version="1.0" xmlns="http://www.w3.org/2000/svg"
 width="1200.000000pt" height="1200.000000pt" viewBox="0 0 1200.000000 1200.000000"
 preserveAspectRatio="xMidYMid meet">
<metadata>
Created by potrace 1.11, written by Peter Selinger 2001-2013
</metadata>
<g transform="translate(0.000000,1200.000000) scale(0.100000,-0.100000)"
fill="#000000" stroke="none">
<path d="M9227 9204 c-1 -1 -49 -4 -107 -8 -185 -11 -326 -33 -508 -77 -114
-28 -276 -77 -327 -99 -11 -5 -36 -15 -55 -23 -111 -47 -220 -100 -372 -181
-278 -149 -625 -449 -836 -721 -34 -44 -66 -85 -72 -92 -16 -19 -150 -222
-150 -227 0 -2 -19 -37 -43 -78 -44 -74 -137 -262 -137 -277 0 -4 -7 -22 -15
-38 -22 -44 -68 -174 -99 -279 -25 -87 -31 -109 -42 -164 -3 -14 -9 -41 -14
-60 -21 -80 -49 -294 -57 -435 -4 -81 -9 -104 -24 -118 -26 -25 -194 -229
-246 -298 -231 -311 -404 -705 -498 -1134 -6 -28 -7 -28 -17 -10 -41 76 -173
256 -235 323 -18 19 -33 40 -34 46 -1 6 -3 38 -5 71 -1 33 -8 89 -14 125 -5
36 -12 83 -15 105 -3 22 -16 83 -30 135 -14 52 -28 106 -30 119 -12 48 -80
210 -136 321 -103 204 -207 348 -369 511 -141 141 -193 185 -335 281 -145 97
-326 186 -496 243 -108 37 -165 52 -309 80 -67 13 -202 26 -307 29 -102 2
-153 -18 -190 -77 -22 -34 -25 -50 -24 -126 0 -47 3 -107 6 -133 3 -27 7 -69
10 -95 24 -223 116 -513 227 -714 142 -258 304 -456 513 -627 55 -45 108 -89
117 -97 10 -8 20 -15 23 -15 2 0 42 -24 87 -54 108 -69 151 -92 278 -148 159
-69 316 -118 435 -134 27 -3 60 -10 73 -15 12 -5 26 -8 30 -7 4 1 36 -2 72 -5
36 -4 84 -9 107 -10 37 -3 47 -10 95 -68 188 -223 326 -508 377 -779 6 -30 14
-68 17 -85 4 -16 9 -284 11 -595 2 -311 4 -691 6 -846 l2 -281 27 -35 c39 -51
89 -72 156 -65 42 4 62 13 84 34 64 60 60 -16 62 1147 2 583 6 1072 9 1086 3
14 8 50 12 80 4 30 8 64 10 75 13 90 19 120 36 190 11 44 22 87 24 96 30 137
161 457 253 614 84 145 159 255 243 359 116 143 143 169 181 171 132 9 218 16
239 19 13 3 47 7 74 11 193 24 434 88 650 172 123 48 395 181 440 216 5 4 51
34 100 66 86 55 265 195 349 271 104 94 267 269 332 355 21 28 41 52 44 55 10
8 174 259 209 320 83 144 172 344 231 520 20 58 79 278 85 314 2 11 9 50 16
86 14 80 14 80 35 265 13 115 12 280 -2 315 -30 72 -76 100 -170 104 -35 1
-65 1 -67 0z m-93 -376 c-2 -24 -7 -68 -11 -98 -3 -30 -6 -58 -5 -62 1 -4 -11
-73 -28 -154 -63 -308 -208 -655 -384 -917 -47 -70 -91 -134 -98 -141 -7 -8
-21 -24 -32 -37 -123 -155 -286 -316 -434 -430 -60 -46 -118 -90 -128 -97 -63
-41 -116 -72 -124 -72 -6 0 -10 -4 -10 -9 0 -9 -314 -170 -340 -175 -8 -1 -33
-10 -55 -20 -106 -46 -392 -124 -520 -142 -27 -3 -59 -8 -70 -10 -11 -2 -55
-6 -97 -10 l-78 -6 5 64 c6 61 10 97 19 148 3 14 7 41 10 60 4 30 30 153 41
200 12 50 68 225 90 280 238 608 679 1095 1255 1390 172 87 311 140 513 195
100 27 110 29 168 39 19 3 61 10 94 16 33 6 94 13 135 16 41 4 77 8 79 10 9 8
9 3 5 -38z m-5474 -1943 c305 -71 659 -276 859 -499 14 -16 40 -43 56 -60 153
-161 321 -485 376 -724 6 -26 13 -56 15 -67 12 -52 30 -173 27 -182 -3 -7 -17
-8 -41 -2 -20 4 -55 10 -77 12 -22 3 -58 10 -80 15 -22 6 -51 13 -65 16 -65
12 -226 73 -330 123 -355 172 -651 473 -823 834 -35 74 -101 259 -111 309 -3
14 -12 57 -20 95 -8 39 -18 93 -22 121 l-6 51 83 -13 c46 -6 118 -20 159 -29z"/>
</g>
</svg>
